<?xml version="1.0" standalone="no"?>
<!DOCTYPE svg PUBLIC "-//W3C//DTD SVG 20010904//EN"
 "http://www.w3.org/TR/2001/REC-SVG-20010904/DTD/svg10.dtd">
<svg
  xmlns="http://www.w3.org/2000/svg"
viewBox="400 100 620 550"
  width="512"
  height="280"
  preserveAspectRatio="xMidYMid meet"
>
  <g
    transform="translate(0,768) scale(0.1,-0.1)"
    fill="#ff6e3f"
    stroke="none"
  >
<path d="M6880 6305 c-230 -46 -435 -205 -540 -419 -58 -117 -80 -205 -80
-329 0 -181 55 -327 172 -452 151 -162 356 -245 606 -245 225 0 402 59 554
184 158 131 248 340 234 546 -20 297 -211 566 -479 673 -136 55 -321 71 -467
42z"/>
<path d="M6245 5125 c3 -16 16 -110 30 -208 43 -295 112 -531 212 -732 48 -97
85 -151 176 -260 78 -94 108 -159 115 -245 9 -137 -31 -254 -142 -415 l-65
-93 51 -4 c62 -4 57 -7 239 152 78 69 212 185 296 259 84 73 153 141 153 150
0 32 49 119 102 182 130 154 182 241 253 421 72 186 146 513 170 753 6 56 5
59 -10 40 -112 -144 -192 -211 -330 -280 -161 -80 -250 -100 -455 -99 -201 0
-280 18 -445 99 -152 74 -247 155 -337 285 l-17 25 4 -30z"/>
<path d="M8400 4644 c-146 -29 -276 -56 -289 -59 -23 -6 -20 -11 57 -88 45
-45 82 -85 82 -89 0 -8 -253 -231 -794 -697 -170 -147 -468 -406 -619 -538
l-129 -113 -119 0 -119 0 -24 -37 c-35 -52 -54 -113 -62 -189 l-7 -64 122 0
122 0 63 53 c34 28 166 142 292 252 594 517 913 795 978 850 39 33 149 128
244 212 l172 152 80 -89 c44 -49 84 -91 89 -94 5 -3 38 99 75 227 36 127 75
262 85 300 l20 67 -27 -1 c-15 -1 -146 -25 -292 -55z"/>
<path d="M7318 3249 c-45 -40 -85 -73 -87 -75 -2 -2 62 -4 142 -4 l147 0 -35
45 c-19 25 -42 59 -52 75 -9 17 -20 30 -24 30 -4 0 -45 -32 -91 -71z"/>
<path d="M6940 2920 c-88 -77 -160 -143 -160 -145 0 -3 208 -5 461 -5 l462 0
-5 76 c-4 60 -12 89 -39 142 l-34 67 -262 3 -263 2 -160 -140z"/>
<path d="M7285 2500 c-126 -17 -238 -77 -311 -167 -107 -130 -124 -345 -42
-506 128 -252 543 -316 758 -117 l44 41 -69 63 -70 63 -39 -33 c-64 -55 -102
-69 -191 -69 -70 0 -87 4 -134 30 -97 54 -141 133 -141 254 1 108 50 190 144
239 42 22 64 27 126 27 85 0 142 -21 201 -73 l36 -31 67 68 67 67 -23 21
c-101 93 -273 143 -423 123z"/>
<path d="M5431 2483 c0 -5 64 -201 142 -438 l143 -430 112 -3 c85 -2 113 1
116 10 152 471 185 570 190 558 3 -8 46 -140 97 -293 l91 -278 112 3 111 3 53
160 c52 157 218 663 229 698 5 16 -2 18 -97 15 l-103 -3 -67 -210 c-113 -348
-125 -385 -130 -385 -3 0 -48 134 -101 298 l-96 297 -99 3 -99 3 -31 -98 c-93
-292 -158 -489 -163 -495 -4 -4 -51 127 -104 292 l-98 300 -104 0 c-58 0 -105
-3 -104 -7z"/>
<path d="M7860 2051 l0 -441 100 0 99 0 3 123 3 122 160 5 c148 5 165 8 221
34 120 54 178 145 179 281 0 68 -4 89 -28 137 -34 69 -90 120 -166 150 -52 21
-74 23 -313 26 l-258 3 0 -440z m474 254 c58 -29 81 -66 81 -130 0 -62 -22
-100 -76 -127 -27 -14 -60 -18 -155 -18 l-120 0 2 148 c1 81 3 149 3 151 1 2
52 1 114 -1 86 -3 121 -8 151 -23z"/>
</g>
</svg>
